<?xml version="1.0" encoding="UTF-8"?> <svg xmlns="http://www.w3.org/2000/svg" width="228" height="19" viewBox="0 0 228 19" fill="none"><g clip-path="url(#clip0_967_1982)"><path d="M11.0804 7.37H7.40039V11.05H11.0804V7.37Z" fill="white"></path><path d="M0 0V18.41H18.41V0H0ZM14.73 14.73H3.68V3.68H14.73V14.73Z" fill="white"></path><path d="M24.8799 2.60999H28.3599V15.78H24.8799V2.60999Z" fill="white"></path><path d="M34.4798 5.80999H30.3398V2.60999H42.0998V5.80999H37.9598V15.78H34.4798V5.80999Z" fill="white"></path><path d="M43.7998 2.60999H46.9998V5.70999H50.1098C51.2498 5.70999 52.1498 6.05999 52.7998 6.74999C53.4498 7.42999 53.7798 8.43999 53.7798 9.76999V15.79H50.5798V10.24C50.5798 9.67999 50.4298 9.23999 50.1298 8.91999C49.8298 8.60999 49.4098 8.44999 48.8898 8.44999L47.0098 8.46999V15.79H43.8098V2.60999H43.7998Z" fill="white"></path><path d="M59.7901 16.07C58.6501 16.07 57.7501 15.73 57.1001 15.04C56.4501 14.36 56.1201 13.35 56.1201 12.02V6H59.3201V11.55C59.3201 12.11 59.4701 12.55 59.7701 12.87C60.0701 13.18 60.4901 13.34 61.0101 13.34C61.5301 13.34 61.9801 13.15 62.3501 12.76C62.7101 12.37 62.9001 11.84 62.9001 11.18V6H66.1001V15.79H62.9001V14.47H62.7101C62.5301 14.78 62.3101 15.05 62.0301 15.28C61.7901 15.48 61.4901 15.66 61.1301 15.83C60.7701 15.99 60.3201 16.07 59.7901 16.07Z" fill="white"></path><path d="M74.85 16.07C74.35 16.07 73.92 15.99 73.56 15.83C73.2 15.67 72.9 15.49 72.65 15.28C72.36 15.05 72.12 14.78 71.93 14.47H71.74V15.79H68.54V2.60999H71.74V5.72999L74.85 5.70999C75.44 5.70999 75.99 5.82999 76.52 6.06999C77.04 6.30999 77.5 6.64999 77.89 7.09999C78.29 7.54999 78.6 8.08999 78.83 8.72999C79.06 9.36999 79.18 10.09 79.18 10.89C79.18 11.69 79.06 12.41 78.83 13.05C78.6 13.69 78.28 14.23 77.89 14.68C77.49 15.13 77.04 15.47 76.52 15.71C76 15.95 75.44 16.07 74.85 16.07ZM73.82 13.34C74.43 13.34 74.93 13.13 75.32 12.72C75.7 12.31 75.89 11.7 75.89 10.89C75.89 10.08 75.7 9.47999 75.32 9.05999C74.94 8.64999 74.44 8.43999 73.82 8.43999H71.75V10.89C71.75 11.69 71.94 12.3 72.32 12.72C72.7 13.13 73.2 13.34 73.82 13.34Z" fill="white"></path><path d="M85.5703 2.50989H91.9003C92.7203 2.50989 93.4503 2.62989 94.1103 2.86989C94.7603 3.10989 95.3203 3.42989 95.7703 3.83989C96.2203 4.24989 96.5703 4.72989 96.8203 5.26989C97.0603 5.80989 97.1803 6.39989 97.1803 7.02989C97.1803 7.54989 97.1003 8.02989 96.9403 8.46989C96.7803 8.90989 96.5603 9.28989 96.2903 9.62989C96.0103 9.96989 95.6903 10.2699 95.3203 10.5199C94.9503 10.7799 94.5503 10.9899 94.1103 11.1499L97.1803 15.9499H93.9203L91.1403 11.5399H88.4503V15.9499H85.5703V2.50989ZM91.8103 8.83989C92.6303 8.83989 93.2303 8.66989 93.6203 8.32989C94.0103 7.98989 94.2103 7.54989 94.2103 7.01989C94.2103 6.48989 94.0103 6.03989 93.6203 5.70989C93.2303 5.36989 92.6303 5.19989 91.8103 5.19989H88.4503V8.84989H91.8103V8.83989Z" fill="#C6C6C6"></path><path d="M103.32 16.2299C102.55 16.2299 101.84 16.0999 101.18 15.8299C100.52 15.5599 99.9502 15.1899 99.4702 14.7299C98.9902 14.2599 98.6202 13.7099 98.3502 13.0799C98.0802 12.4499 97.9502 11.7699 97.9502 11.0599C97.9502 10.3499 98.0802 9.66989 98.3502 9.03989C98.6202 8.40989 98.9902 7.85989 99.4702 7.38989C99.9502 6.91989 100.52 6.55989 101.18 6.28989C101.84 6.01989 102.55 5.88989 103.32 5.88989C104.09 5.88989 104.8 6.01989 105.45 6.28989C106.1 6.55989 106.67 6.92989 107.15 7.38989C107.63 7.85989 108.01 8.40989 108.28 9.03989C108.55 9.66989 108.69 10.3499 108.69 11.0599C108.69 11.7699 108.55 12.4499 108.28 13.0799C108 13.7099 107.63 14.2599 107.15 14.7299C106.67 15.1999 106.1 15.5599 105.45 15.8299C104.8 16.0999 104.09 16.2299 103.32 16.2299ZM103.32 13.9299C103.68 13.9299 104.01 13.8599 104.33 13.7199C104.64 13.5799 104.92 13.3799 105.16 13.1299C105.4 12.8799 105.58 12.5799 105.72 12.2299C105.85 11.8799 105.92 11.4799 105.92 11.0499C105.92 10.6199 105.85 10.2199 105.72 9.86989C105.59 9.51989 105.4 9.21989 105.16 8.96989C104.92 8.71989 104.65 8.52989 104.33 8.37989C104.02 8.23989 103.68 8.16989 103.32 8.16989C102.96 8.16989 102.63 8.23989 102.31 8.37989C102 8.51989 101.72 8.71989 101.48 8.96989C101.24 9.21989 101.06 9.51989 100.92 9.86989C100.79 10.2199 100.72 10.6199 100.72 11.0499C100.72 11.4799 100.79 11.8799 100.92 12.2299C101.05 12.5799 101.24 12.8799 101.48 13.1299C101.72 13.3799 101.99 13.5699 102.31 13.7199C102.62 13.8599 102.96 13.9299 103.32 13.9299Z" fill="#C6C6C6"></path><path d="M114.45 16.23C113.93 16.23 113.45 16.18 113.03 16.09C112.61 15.99 112.23 15.86 111.91 15.7C111.58 15.53 111.3 15.35 111.05 15.14C110.8 14.94 110.59 14.72 110.43 14.51C110.02 14 109.73 13.42 109.57 12.78H112.35C112.45 13.02 112.59 13.23 112.77 13.41C112.92 13.56 113.13 13.7 113.4 13.83C113.67 13.96 114.02 14.02 114.46 14.02C115.09 14.02 115.52 13.93 115.75 13.76C115.98 13.59 116.1 13.35 116.1 13.06C116.1 12.8 115.95 12.61 115.65 12.48C115.35 12.35 114.98 12.24 114.53 12.13C114.08 12.03 113.6 11.92 113.08 11.8C112.56 11.68 112.08 11.51 111.63 11.28C111.18 11.05 110.81 10.74 110.51 10.36C110.21 9.97998 110.06 9.45998 110.06 8.81998C110.06 8.43998 110.15 8.06998 110.33 7.70998C110.51 7.34998 110.77 7.03998 111.12 6.75998C111.47 6.47998 111.89 6.25998 112.41 6.09998C112.92 5.92998 113.52 5.84998 114.19 5.84998C114.7 5.84998 115.16 5.88998 115.57 5.97998C115.98 6.06998 116.34 6.18998 116.65 6.33998C116.96 6.48998 117.24 6.66998 117.47 6.85998C117.7 7.04998 117.89 7.23998 118.05 7.43998C118.42 7.89998 118.67 8.42998 118.8 9.00998H116.11C116.03 8.82998 115.92 8.66998 115.76 8.52998C115.62 8.40998 115.42 8.30998 115.17 8.19998C114.92 8.09998 114.59 8.04998 114.18 8.04998C113.69 8.04998 113.35 8.12998 113.14 8.28998C112.94 8.44998 112.83 8.62998 112.83 8.81998C112.83 9.07998 112.98 9.26998 113.28 9.39998C113.58 9.52998 113.95 9.63998 114.4 9.74998C114.85 9.84998 115.33 9.95998 115.85 10.08C116.37 10.2 116.85 10.37 117.3 10.6C117.75 10.83 118.12 11.14 118.42 11.52C118.72 11.9 118.87 12.42 118.87 13.06C118.87 13.47 118.77 13.86 118.58 14.24C118.39 14.62 118.11 14.95 117.74 15.25C117.37 15.54 116.91 15.78 116.36 15.96C115.81 16.14 115.18 16.23 114.46 16.23H114.45Z" fill="#C6C6C6"></path><path d="M120.88 8.45994H119.63V6.15994H120.88V2.43994H123.57V6.15994H126.35V8.45994H123.57V13.6399H126.45V15.9399H120.88V8.45994Z" fill="#C6C6C6"></path><path d="M132.78 16.2299C132.01 16.2299 131.3 16.0999 130.64 15.8299C129.98 15.5599 129.41 15.1899 128.93 14.7299C128.45 14.2599 128.08 13.7099 127.81 13.0799C127.54 12.4499 127.41 11.7699 127.41 11.0599C127.41 10.3499 127.54 9.66989 127.81 9.03989C128.08 8.40989 128.45 7.85989 128.93 7.38989C129.41 6.91989 129.98 6.55989 130.64 6.28989C131.3 6.01989 132.01 5.88989 132.78 5.88989C133.55 5.88989 134.26 6.01989 134.91 6.28989C135.56 6.55989 136.13 6.92989 136.61 7.38989C137.09 7.85989 137.47 8.40989 137.74 9.03989C138.01 9.66989 138.15 10.3499 138.15 11.0599C138.15 11.7699 138.01 12.4499 137.74 13.0799C137.46 13.7099 137.09 14.2599 136.61 14.7299C136.13 15.1999 135.56 15.5599 134.91 15.8299C134.26 16.0999 133.55 16.2299 132.78 16.2299ZM132.78 13.9299C133.14 13.9299 133.47 13.8599 133.79 13.7199C134.1 13.5799 134.38 13.3799 134.62 13.1299C134.86 12.8799 135.04 12.5799 135.18 12.2299C135.31 11.8799 135.38 11.4799 135.38 11.0499C135.38 10.6199 135.31 10.2199 135.18 9.86989C135.05 9.51989 134.86 9.21989 134.62 8.96989C134.38 8.71989 134.11 8.52989 133.79 8.37989C133.48 8.23989 133.14 8.16989 132.78 8.16989C132.42 8.16989 132.09 8.23989 131.77 8.37989C131.46 8.51989 131.18 8.71989 130.94 8.96989C130.7 9.21989 130.52 9.51989 130.38 9.86989C130.25 10.2199 130.18 10.6199 130.18 11.0499C130.18 11.4799 130.25 11.8799 130.38 12.2299C130.51 12.5799 130.7 12.8799 130.94 13.1299C131.18 13.3799 131.45 13.5699 131.77 13.7199C132.08 13.8599 132.42 13.9299 132.78 13.9299Z" fill="#C6C6C6"></path><path d="M138.821 6.15991H141.601L143.421 13.6399H144.481L146.301 6.15991H149.081L146.491 15.9499H141.401L138.811 6.15991H138.821Z" fill="#C6C6C6"></path><path d="M150.34 9.60999H157.54V11.91H150.34V9.60999Z" fill="#C6C6C6"></path><path d="M164.44 16.2299C163.67 16.2299 162.96 16.0999 162.3 15.8299C161.64 15.5599 161.07 15.1899 160.59 14.7299C160.11 14.2599 159.74 13.7099 159.47 13.0799C159.2 12.4499 159.07 11.7699 159.07 11.0599C159.07 10.3499 159.2 9.66989 159.47 9.03989C159.74 8.40989 160.11 7.85989 160.59 7.38989C161.07 6.91989 161.64 6.55989 162.3 6.28989C162.96 6.01989 163.67 5.88989 164.44 5.88989C165.21 5.88989 165.92 6.01989 166.57 6.28989C167.22 6.55989 167.79 6.92989 168.27 7.38989C168.75 7.85989 169.13 8.40989 169.4 9.03989C169.67 9.66989 169.81 10.3499 169.81 11.0599C169.81 11.7699 169.67 12.4499 169.4 13.0799C169.12 13.7099 168.75 14.2599 168.27 14.7299C167.79 15.1999 167.22 15.5599 166.57 15.8299C165.92 16.0999 165.21 16.2299 164.44 16.2299ZM164.44 13.9299C164.8 13.9299 165.13 13.8599 165.45 13.7199C165.76 13.5799 166.04 13.3799 166.28 13.1299C166.52 12.8799 166.7 12.5799 166.84 12.2299C166.97 11.8799 167.04 11.4799 167.04 11.0499C167.04 10.6199 166.97 10.2199 166.84 9.86989C166.71 9.51989 166.52 9.21989 166.28 8.96989C166.04 8.71989 165.77 8.52989 165.45 8.37989C165.14 8.23989 164.8 8.16989 164.44 8.16989C164.08 8.16989 163.75 8.23989 163.43 8.37989C163.12 8.51989 162.84 8.71989 162.6 8.96989C162.36 9.21989 162.18 9.51989 162.04 9.86989C161.91 10.2199 161.84 10.6199 161.84 11.0499C161.84 11.4799 161.91 11.8799 162.04 12.2299C162.17 12.5799 162.36 12.8799 162.6 13.1299C162.84 13.3799 163.11 13.5699 163.43 13.7199C163.74 13.8599 164.08 13.9299 164.44 13.9299Z" fill="#C6C6C6"></path><path d="M183.061 9.60999H190.261V11.91H183.061V9.60999Z" fill="#C6C6C6"></path><path d="M192.561 2.50989H197.451C198.521 2.50989 199.511 2.68989 200.411 3.03989C201.311 3.38989 202.081 3.86989 202.721 4.46989C203.371 5.06989 203.861 5.77989 204.221 6.59989C204.571 7.41989 204.751 8.29989 204.751 9.22989C204.751 10.1599 204.571 11.0399 204.221 11.8599C203.871 12.6799 203.371 13.3899 202.721 13.9899C202.071 14.5899 201.301 15.0699 200.411 15.4199C199.511 15.7699 198.531 15.9499 197.451 15.9499H192.561V2.50989ZM197.451 13.2599C198.121 13.2599 198.721 13.1599 199.251 12.9699C199.791 12.7799 200.241 12.4999 200.611 12.1399C200.981 11.7799 201.271 11.3599 201.461 10.8599C201.661 10.3699 201.761 9.81989 201.761 9.21989C201.761 8.61989 201.661 8.06989 201.461 7.57989C201.261 7.08989 200.981 6.65989 200.611 6.29989C200.241 5.93989 199.781 5.66989 199.251 5.46989C198.711 5.27989 198.111 5.17989 197.451 5.17989H195.431V13.2399H197.451V13.2599Z" fill="#C6C6C6"></path><path d="M211.27 16.2299C210.5 16.2299 209.79 16.0999 209.13 15.8299C208.47 15.5599 207.9 15.1899 207.42 14.7299C206.94 14.2599 206.57 13.7099 206.3 13.0799C206.03 12.4499 205.9 11.7699 205.9 11.0599C205.9 10.3499 206.03 9.66989 206.3 9.03989C206.57 8.40989 206.94 7.85989 207.42 7.38989C207.9 6.91989 208.47 6.55989 209.13 6.28989C209.79 6.01989 210.5 5.88989 211.27 5.88989C212.04 5.88989 212.75 6.01989 213.4 6.28989C214.05 6.55989 214.62 6.92989 215.1 7.38989C215.58 7.85989 215.96 8.40989 216.23 9.03989C216.5 9.66989 216.64 10.3499 216.64 11.0599C216.64 11.7699 216.5 12.4499 216.23 13.0799C215.95 13.7099 215.58 14.2599 215.1 14.7299C214.62 15.1999 214.05 15.5599 213.4 15.8299C212.75 16.0999 212.04 16.2299 211.27 16.2299ZM211.27 13.9299C211.63 13.9299 211.96 13.8599 212.28 13.7199C212.59 13.5799 212.87 13.3799 213.11 13.1299C213.35 12.8799 213.53 12.5799 213.67 12.2299C213.8 11.8799 213.87 11.4799 213.87 11.0499C213.87 10.6199 213.8 10.2199 213.67 9.86989C213.54 9.51989 213.35 9.21989 213.11 8.96989C212.87 8.71989 212.6 8.52989 212.28 8.37989C211.97 8.23989 211.63 8.16989 211.27 8.16989C210.91 8.16989 210.58 8.23989 210.26 8.37989C209.95 8.51989 209.67 8.71989 209.43 8.96989C209.19 9.21989 209.01 9.51989 208.87 9.86989C208.74 10.2199 208.67 10.6199 208.67 11.0499C208.67 11.4799 208.74 11.8799 208.87 12.2299C209 12.5799 209.19 12.8799 209.43 13.1299C209.67 13.3799 209.94 13.5699 210.26 13.7199C210.57 13.8599 210.91 13.9299 211.27 13.9299Z" fill="#C6C6C6"></path><path d="M218.18 6.15991H220.87C220.87 6.15991 223.5 6.15991 224.07 6.15991C225.27 6.15991 226.2 6.46991 226.87 7.16991C227.55 7.86991 227.87 8.64991 227.87 9.99991V15.9499H225.18V10.3799C225.18 9.64991 225 9.09991 224.64 8.72991C224.28 8.35991 223.79 8.16991 223.16 8.16991C222.85 8.16991 220.85 8.16991 220.85 8.16991C220.85 8.16991 220.85 10.3799 220.85 10.7599V15.9399H218.16V6.15991H218.18Z" fill="#C6C6C6"></path><path d="M171.371 6.16992H174.061C174.061 6.16992 176.691 6.16992 177.261 6.16992C178.461 6.16992 179.391 6.47992 180.061 7.17992C180.741 7.87992 181.061 8.65992 181.061 10.0099V15.9599H178.371V10.3899C178.371 9.65992 178.191 9.10992 177.831 8.73992C177.471 8.36992 176.981 8.17992 176.351 8.17992C176.041 8.17992 174.041 8.17992 174.041 8.17992C174.041 8.17992 174.041 10.3899 174.041 10.7699V15.9499H171.351V6.16992H171.371Z" fill="#C6C6C6"></path></g><defs><clipPath id="clip0_967_1982"><rect width="227.87" height="18.41" fill="white"></rect></clipPath></defs></svg> 